<svg version="1.0" xmlns="http://www.w3.org/2000/svg"
    width="2154.000000pt" height="647.000000pt" viewBox="0 0 2154.000000 647.000000"
    preserveAspectRatio="xMidYMid meet">

    <g transform="translate(0.000000,647.000000) scale(0.100000,-0.100000)"
    >
        <path
            d="M10 3230 l0 -3230 10760 0 10760 0 0 3230 0 3230 -10760 0 -10760 0
0 -3230z m8976 1640 c831 -65 1319 -343 1528 -868 83 -209 119 -422 119 -717
1 -424 -75 -724 -252 -990 -59 -89 -195 -227 -291 -294 -225 -158 -543 -266
-931 -316 -257 -33 -559 -36 -2892 -33 -2272 3 -2309 3 -2323 22 -12 17 -14
251 -14 1597 0 1421 2 1579 16 1593 14 14 251 16 2463 16 1561 0 2495 -4 2577
-10z m7857 -13 c326 -66 530 -171 692 -359 160 -184 246 -502 216 -799 -57
-546 -440 -856 -1108 -894 -104 -6 -123 -10 -123 -24 0 -9 12 -24 26 -34 14
-11 325 -230 692 -489 367 -259 686 -486 710 -505 47 -38 56 -75 22 -93 -13
-7 -388 -10 -1207 -8 -1187 3 -1188 3 -1224 24 -19 12 -248 197 -507 412 -260
216 -481 396 -492 402 -12 7 -218 9 -602 8 l-583 -3 -5 -403 -5 -404 -24 -19
c-23 -19 -49 -19 -973 -17 l-950 3 -19 24 c-19 23 -19 62 -19 1590 0 1406 2
1569 16 1589 l15 22 2682 -2 c2519 -3 2687 -4 2770 -21z" />
        <path
            d="M5933 4284 c-10 -5 -13 -217 -13 -1014 0 -910 2 -1008 16 -1014 26
-10 1579 -6 1714 4 359 28 561 100 716 254 93 93 131 155 174 283 44 132 60
258 60 470 0 274 -27 427 -103 583 -33 68 -59 103 -127 171 -72 73 -100 94
-181 133 -106 52 -237 88 -403 112 -94 14 -240 17 -976 20 -476 2 -871 1 -877
-2z" />
        <path
            d="M13368 4279 c-17 -9 -18 -48 -18 -593 0 -491 2 -585 14 -595 11 -9
242 -11 943 -8 907 3 930 4 1023 25 132 30 244 87 308 157 97 106 132 219 132
431 0 391 -163 550 -602 584 -170 13 -1778 13 -1800 -1z" />
    </g>
</svg>