<svg version="1.0" xmlns="http://www.w3.org/2000/svg"
    width="96.000000pt" height="96.000000pt" viewBox="0 0 96.000000 96.000000"
    preserveAspectRatio="xMidYMid meet">

    <g transform="translate(0.000000,96.000000) scale(0.100000,-0.100000)">
        <path
            d="M160 703 c0 -6 12 -13 28 -15 l27 -3 0 -210 c0 -233 -5 -256 -66
-278 -37 -14 -38 -29 -1 -21 46 11 85 38 107 74 18 31 21 57 25 235 l5 200 28
3 c15 2 27 9 27 15 0 8 -27 12 -90 12 -63 0 -90 -4 -90 -12z" />
        <path
            d="M370 707 c0 -4 11 -12 24 -16 18 -8 38 -47 101 -200 73 -180 79 -191
104 -191 25 0 32 12 106 188 60 140 86 189 103 197 42 19 23 30 -53 30 -46 0
-74 -4 -72 -10 2 -5 13 -11 24 -13 12 -2 23 -9 26 -15 4 -12 -104 -307 -113
-307 -10 0 -121 300 -115 310 3 5 15 10 26 10 10 0 19 6 19 13 0 9 -25 12 -90
12 -49 0 -90 -3 -90 -8z" />
    </g>
</svg>