<svg viewBox="0 0 48 48" id="b" xmlns="http://www.w3.org/2000/svg" fill="#000000">
    <g id="SVGRepo_bgCarrier" stroke-width="0"></g>
    <g id="SVGRepo_tracerCarrier" stroke-linecap="round" stroke-linejoin="round" stroke="#CCCCCC"
        stroke-width="2.88">
        <defs>
            <style>.e{fill:none;stroke:currentColor;stroke-linecap:round;stroke-linejoin:round;}</style>
        </defs>
        <circle id="c" class="e" cx="24" cy="24" r="21.5"></circle>
        <path id="d" class="e"
            d="m7.8007,21.4575h18.4771c2.6877,0,2.6877-4.4426,0-4.4426H9.2481m-.0235-.0081c2.7257-5.4689,8.3809-8.9356,14.5764-8.9356,8.9645,0,16.2317,7.1434,16.2317,15.9552h0c0,8.8118-7.2672,15.9552-16.2317,15.9552h0c-8.9645,0-16.2317-7.1434-16.2317-15.9552h0c0-.8619.071-1.7223.2124-2.5729"></path>
    </g>
    <g id="SVGRepo_iconCarrier">
        <defs>
            <style>.e{fill:none;stroke:currentColor;stroke-linecap:round;stroke-linejoin:round;}</style>
        </defs>
        <circle id="c" class="e" cx="24" cy="24" r="21.5"></circle>
        <path id="d" class="e"
            d="m7.8007,21.4575h18.4771c2.6877,0,2.6877-4.4426,0-4.4426H9.2481m-.0235-.0081c2.7257-5.4689,8.3809-8.9356,14.5764-8.9356,8.9645,0,16.2317,7.1434,16.2317,15.9552h0c0,8.8118-7.2672,15.9552-16.2317,15.9552h0c-8.9645,0-16.2317-7.1434-16.2317-15.9552h0c0-.8619.071-1.7223.2124-2.5729"></path>
    </g>
</svg>